<?xml version="1.0" standalone="no"?>
<!DOCTYPE svg PUBLIC "-//W3C//DTD SVG 20010904//EN"
 "http://www.w3.org/TR/2001/REC-SVG-20010904/DTD/svg10.dtd">
<svg version="1.0" xmlns="http://www.w3.org/2000/svg"
 width="1025.000000pt" height="678.000000pt" viewBox="0 0 1025.000000 678.000000"
 preserveAspectRatio="xMidYMid meet">

<g transform="translate(0.000000,678.000000) scale(0.100000,-0.100000)"
fill="#000000" stroke="none">
<path d="M2246 4229 c-2 -8 -9 -30 -16 -50 -8 -28 -21 -42 -55 -60 -25 -13
-45 -27 -45 -31 0 -3 16 -16 36 -29 20 -12 42 -36 50 -53 l13 -31 1 32 c0 25
-7 35 -35 52 -19 11 -35 24 -35 29 0 4 16 16 34 25 27 12 38 26 47 57 7 22 15
40 19 40 4 0 17 -11 30 -25 19 -20 33 -25 72 -25 26 0 48 -2 48 -5 0 -4 -7
-20 -16 -37 -15 -29 -15 -55 1 -105 7 -22 5 -23 -36 -17 -39 5 -49 2 -87 -26
-55 -42 -47 -52 10 -12 39 28 47 30 91 23 53 -9 55 -6 33 56 -13 36 -12 44 5
83 10 23 19 44 19 46 0 2 -24 4 -54 4 -30 0 -56 3 -58 8 -2 4 -18 20 -35 36
-24 22 -34 26 -37 15z"/>
<path d="M3169 4088 l-45 -152 -132 -72 c-73 -39 -137 -75 -142 -80 -8 -8 227
-180 263 -193 29 -11 -16 26 -123 100 -65 46 -117 86 -114 89 3 3 62 37 132
75 l126 70 42 137 c23 76 44 142 46 147 1 5 53 -37 113 -95 l110 -105 153 3
c83 2 152 0 152 -3 0 -3 -28 -66 -63 -139 l-63 -133 49 -139 c27 -77 47 -142
44 -144 -4 -5 -227 21 -272 31 -14 3 -45 -14 -95 -52 -123 -92 -151 -115 -145
-121 3 -3 49 28 102 69 54 41 104 78 110 83 7 4 83 -2 169 -14 86 -11 158 -19
159 -18 1 2 -22 71 -52 154 l-54 151 70 148 71 147 -164 -3 -164 -3 -114 107
c-64 59 -117 107 -120 107 -2 0 -24 -68 -49 -152z"/>
<path d="M5242 4156 c-8 -10 -352 -777 -367 -818 -7 -17 3 -18 110 -18 l117 0
21 50 21 50 118 0 c116 0 118 1 108 20 -10 18 -21 20 -131 20 l-121 0 -21 -50
-21 -50 -72 0 -73 0 50 113 c28 61 103 232 167 380 96 219 120 267 135 265 14
-2 59 -94 178 -363 87 -198 162 -368 165 -377 5 -16 -2 -18 -58 -18 l-63 0
-36 83 -37 82 -191 3 -191 2 -14 -32 c-8 -18 -21 -50 -30 -70 l-16 -38 28 0
c25 0 30 6 46 50 l18 50 162 0 162 0 35 -82 36 -83 111 -3 c62 -1 112 -1 112
1 0 2 -85 192 -189 422 l-189 419 -36 1 c-20 1 -40 -3 -44 -9z"/>
<path d="M6117 4159 c-85 -20 -162 -82 -193 -155 -22 -51 -18 -152 7 -199 38
-72 91 -111 214 -157 99 -37 121 -59 102 -98 -12 -23 -19 -25 -73 -24 -47 1
-75 8 -124 33 -35 17 -67 28 -71 24 -17 -19 -97 -158 -94 -163 9 -14 134 -72
185 -85 67 -18 159 -19 214 -3 27 8 60 31 97 68 46 46 57 64 67 111 20 90 -5
174 -70 235 -38 36 -74 56 -167 91 -36 13 -74 32 -83 40 -22 20 -23 56 -3 73
25 21 123 6 192 -29 l61 -30 32 50 c18 27 31 51 29 53 -14 13 -132 66 -168 76
-159 42 -283 -29 -283 -162 0 -86 43 -129 188 -188 137 -56 173 -98 151 -180
-24 -93 -108 -121 -241 -80 -67 21 -86 20 -86 -5 0 -19 118 -55 180 -55 93 0
167 46 189 119 15 53 14 79 -8 128 -22 48 -72 81 -178 117 -86 29 -120 50
-139 87 -21 41 -18 101 7 133 46 59 120 71 231 36 78 -24 101 -40 88 -60 -8
-12 -16 -11 -57 9 -56 28 -168 40 -201 22 -30 -16 -54 -65 -46 -95 9 -38 54
-72 132 -100 94 -33 121 -48 156 -82 42 -42 57 -80 57 -137 0 -64 -11 -95 -51
-141 -80 -91 -199 -98 -372 -24 -27 11 -48 22 -48 24 0 4 48 84 56 92 1 2 32
-8 68 -22 151 -61 276 -2 220 103 -16 31 -31 41 -104 69 -109 42 -138 58 -174
96 -99 105 -60 274 76 330 77 33 210 11 325 -53 43 -24 54 -26 64 -15 16 19 7
28 -67 64 -113 54 -215 75 -287 59z"/>
<path d="M6650 3745 l0 -425 105 0 105 0 0 144 0 143 98 5 c113 6 162 25 211
85 84 102 80 290 -9 387 -59 64 -114 79 -285 80 l-140 1 -3 -192 -2 -193 124
0 c69 0 136 5 149 11 77 35 68 168 -13 196 -19 7 -65 12 -102 12 l-68 1 0 -70
c0 -63 2 -70 20 -70 17 0 20 7 20 45 l0 45 65 0 c57 0 66 -3 81 -25 17 -26 12
-58 -14 -87 -13 -15 -33 -18 -119 -18 l-103 0 0 151 0 151 138 -4 c122 -3 142
-6 178 -26 77 -44 115 -136 99 -239 -22 -148 -81 -194 -262 -201 l-113 -5 0
-143 0 -144 -60 0 -60 0 0 405 c0 398 0 405 -20 405 -20 0 -20 -7 -20 -425z"/>
<path d="M7390 4161 c0 -5 8 -19 18 -32 10 -13 48 -67 84 -119 35 -52 92 -135
126 -183 l62 -88 0 -209 0 -210 110 0 110 0 0 208 0 208 93 132 c154 220 206
296 204 298 -1 1 -37 -1 -79 -4 l-77 -7 -52 -75 c-29 -41 -89 -130 -135 -197
l-84 -121 0 -186 c0 -179 1 -186 20 -186 19 0 20 7 20 178 l0 178 128 186
c100 148 132 187 150 188 12 0 22 -2 22 -5 0 -3 -58 -89 -130 -191 l-130 -185
0 -189 0 -190 -60 0 -60 0 0 193 0 192 -140 199 c-77 110 -144 204 -148 208
-12 12 -52 19 -52 9z"/>
<path d="M7538 4161 l-47 -6 120 -170 c65 -93 119 -173 119 -177 0 -14 28 -9
33 5 3 8 55 87 116 176 61 89 111 163 111 165 0 2 -9 6 -20 9 -16 4 -37 -19
-116 -136 -53 -78 -100 -145 -104 -150 -3 -4 -42 43 -86 105 -104 146 -100
138 -71 138 19 0 37 -19 86 -90 34 -49 66 -90 71 -90 4 0 11 8 14 17 5 11 -13
45 -51 101 -60 87 -86 113 -113 110 -8 0 -36 -4 -62 -7z"/>
<path d="M4350 4146 c-163 -46 -280 -174 -311 -340 -19 -106 10 -224 79 -314
45 -59 47 -61 105 -101 79 -54 149 -73 248 -69 73 3 96 9 160 40 41 19 85 44
98 55 l24 20 -53 79 c-29 43 -54 80 -55 82 -1 1 -33 -13 -71 -33 -108 -55
-197 -43 -271 36 -67 73 -75 175 -19 256 72 105 206 122 318 41 15 -11 22 -7
52 27 19 22 35 45 36 52 0 18 -79 69 -139 89 -137 44 -313 -25 -388 -154 -93
-158 -43 -359 112 -457 67 -43 131 -59 208 -53 74 6 152 41 143 64 -3 9 -6 18
-6 20 0 2 -19 -5 -42 -17 -133 -68 -317 -3 -388 138 -36 69 -36 197 0 266 71
140 244 202 388 138 50 -23 66 -46 39 -57 -7 -2 -33 4 -58 15 -50 23 -131 27
-191 9 -48 -14 -121 -82 -144 -135 -25 -56 -23 -158 4 -208 31 -60 63 -91 120
-120 75 -38 168 -35 236 6 17 10 34 19 38 19 14 0 69 -90 62 -101 -4 -6 -36
-25 -73 -43 -59 -27 -76 -31 -156 -31 -80 0 -97 4 -157 32 -295 139 -293 547
2 687 58 28 75 31 155 31 76 0 99 -5 147 -27 32 -15 74 -39 93 -54 32 -24 38
-26 51 -12 13 13 11 18 -18 39 -120 90 -253 120 -378 85z"/>
<path d="M6820 4060 c0 -18 7 -20 83 -21 103 0 145 -14 174 -58 28 -41 31
-126 8 -175 -27 -57 -63 -69 -217 -74 l-138 -5 0 -168 c0 -162 1 -169 20 -169
19 0 20 7 20 149 l0 149 118 4 c173 6 228 37 252 142 12 54 -2 139 -28 176
-35 48 -96 70 -199 70 -86 0 -93 -1 -93 -20z"/>
<path d="M2666 4053 c-3 -3 -6 -14 -6 -24 0 -11 -14 -26 -32 -35 -30 -16 -31
-17 -13 -30 10 -8 22 -14 27 -14 4 0 8 -7 8 -15 0 -8 5 -15 10 -15 16 0 11 18
-11 39 l-21 19 21 11 c12 7 21 18 21 26 0 17 16 20 25 5 3 -5 18 -10 32 -10
20 0 24 -3 18 -17 -4 -10 -7 -28 -6 -41 1 -17 -4 -22 -17 -20 -20 3 -69 -28
-59 -38 4 -4 16 1 27 11 14 12 28 16 49 12 29 -6 29 -5 20 22 -7 18 -6 37 1
55 14 37 13 37 -13 31 -15 -4 -32 1 -49 14 -14 11 -28 17 -32 14z"/>
<path d="M3267 4043 c-4 -6 -17 -47 -30 -93 l-24 -84 -77 -42 c-43 -23 -82
-46 -87 -51 -6 -6 19 -29 71 -64 72 -48 81 -57 87 -91 3 -21 10 -41 16 -45 7
-4 8 5 4 27 -4 18 -7 39 -7 46 0 7 -31 35 -68 61 -37 27 -70 51 -73 56 -2 4
30 27 71 50 l74 42 24 80 c13 44 26 82 28 84 2 2 33 -24 69 -58 l65 -63 85 7
c58 5 85 4 85 -3 0 -6 -16 -45 -35 -87 l-34 -76 30 -81 c16 -44 28 -82 27 -83
-2 -1 -43 3 -91 10 l-88 12 -75 -59 c-42 -33 -73 -62 -71 -65 3 -2 39 21 80
52 l75 56 91 -12 c50 -6 94 -10 96 -7 3 3 -9 44 -26 92 l-32 88 41 89 40 89
-101 0 -101 0 -67 66 c-37 36 -69 62 -72 57z"/>
<path d="M5257 3999 c-101 -224 -187 -420 -187 -424 0 -3 77 -5 171 -5 148 0
170 2 165 15 -17 44 -121 273 -123 271 -2 -1 -23 -50 -47 -109 -45 -106 -45
-107 -22 -107 19 0 28 10 46 55 l22 55 33 -68 c18 -37 30 -71 28 -75 -6 -10
-203 -7 -203 3 0 11 131 324 139 333 4 4 63 -119 131 -273 113 -258 125 -280
147 -280 16 0 23 4 20 13 -17 42 -289 642 -292 646 -2 2 -15 -21 -28 -50z"/>
<path d="M2640 3643 c-77 -51 -200 -152 -200 -164 0 -6 33 16 73 49 39 32 98
76 130 97 31 21 57 42 57 46 0 13 0 13 -60 -28z"/>
<path d="M2764 3465 c-103 -71 -140 -102 -133 -109 4 -4 31 13 60 37 30 24 80
60 112 80 31 20 57 39 57 42 0 12 -21 1 -96 -50z"/>
<path d="M2380 3425 c-13 -14 -21 -27 -18 -30 2 -3 15 6 28 20 13 14 21 27 18
30 -2 3 -15 -6 -28 -20z"/>
<path d="M2934 3329 c-66 -46 -114 -88 -114 -101 0 -5 26 12 57 37 31 26 74
56 95 68 35 21 49 37 30 37 -5 0 -35 -18 -68 -41z"/>
<path d="M2296 3341 c-10 -11 -16 -25 -14 -32 2 -7 14 1 27 19 24 35 15 44
-13 13z"/>
<path d="M2565 3310 c-10 -11 -14 -20 -9 -20 12 1 44 25 44 34 0 12 -17 6 -35
-14z"/>
<path d="M2210 3231 c-12 -17 -17 -31 -11 -31 13 0 46 48 38 56 -2 3 -15 -9
-27 -25z"/>
<path d="M2495 3240 c-27 -30 -12 -34 15 -5 13 14 19 25 13 25 -5 0 -18 -9
-28 -20z"/>
<path d="M3497 3233 c-3 -4 -10 -27 -16 -51 -10 -36 -19 -46 -56 -64 -25 -12
-45 -25 -45 -30 0 -4 17 -19 37 -32 20 -14 42 -38 49 -53 l12 -28 1 27 c1 19
-9 34 -35 55 l-37 30 36 22 c26 16 40 34 48 62 7 21 15 39 18 39 2 0 18 -12
33 -27 24 -22 36 -27 73 -24 l45 3 -16 -42 c-15 -38 -15 -70 2 -114 6 -17 3
-18 -34 -11 -33 5 -49 2 -76 -14 -18 -12 -39 -28 -46 -36 -21 -25 6 -17 40 11
27 23 37 26 85 22 30 -3 55 -1 55 2 0 4 -7 26 -15 50 -14 39 -13 45 5 83 11
22 20 44 20 49 0 4 -23 8 -52 8 -46 0 -56 4 -89 36 -20 20 -39 32 -42 27z"/>
<path d="M2770 3195 c-7 -9 -11 -18 -8 -20 3 -3 11 1 18 10 7 9 11 18 8 20 -3
3 -11 -1 -18 -10z"/>
<path d="M2417 3152 c-18 -20 -22 -32 -9 -32 10 1 45 50 34 50 -5 0 -16 -8
-25 -18z"/>
<path d="M2136 3114 c-24 -51 -12 -55 14 -5 11 23 17 41 12 41 -5 0 -16 -16
-26 -36z"/>
<path d="M2710 3135 c-20 -24 -6 -28 15 -5 10 11 13 20 8 20 -6 0 -16 -7 -23
-15z"/>
<path d="M2340 3049 c-12 -16 -20 -32 -17 -35 6 -6 47 45 47 57 0 16 -8 10
-30 -22z"/>
<path d="M2645 3060 c-10 -11 -16 -22 -13 -25 3 -3 13 4 23 15 10 11 16 22 13
25 -3 3 -13 -4 -23 -15z"/>
<path d="M4057 3063 l-28 -4 3 -142 3 -142 68 0 c81 0 94 18 17 25 l-55 5 -3
48 -3 47 38 0 c21 0 45 5 53 10 13 9 13 11 0 20 -8 5 -32 10 -52 10 l-38 0 0
45 0 45 54 0 c49 0 77 12 63 27 -8 7 -85 11 -120 6z"/>
<path d="M4776 3063 c-17 -17 -4 -33 29 -33 l35 0 0 -130 c0 -109 2 -130 15
-130 13 0 15 21 15 130 l0 130 29 0 c26 0 50 15 40 24 -8 7 -157 15 -163 9z"/>
<path d="M5544 3059 c-42 -12 -54 -44 -54 -150 0 -82 2 -92 25 -114 51 -52
165 -21 165 46 0 19 -5 29 -15 29 -8 0 -15 -9 -15 -19 0 -29 -27 -51 -64 -51
-53 0 -66 24 -66 118 0 94 11 112 70 112 30 0 41 -6 55 -26 19 -30 41 -19 30
15 -11 36 -76 56 -131 40z"/>
<path d="M6816 3061 c-4 -6 -9 -226 -7 -273 1 -15 11 -18 72 -18 52 0 70 3 67
13 -3 7 -26 13 -56 15 l-52 3 0 49 0 49 43 3 c29 2 42 8 42 18 0 10 -13 16
-42 18 l-43 3 0 45 0 44 49 0 c45 0 72 13 58 27 -9 8 -127 12 -131 4z"/>
<path d="M5197 3054 c-11 -11 -8 -257 3 -274 22 -35 31 8 28 140 -3 124 -10
155 -31 134z"/>
<path d="M6005 3048 c-28 -82 -75 -261 -70 -269 10 -15 32 7 38 39 5 25 10 28
52 31 36 1 46 -2 51 -16 16 -51 25 -66 35 -56 10 10 -3 59 -62 251 -10 32 -36
43 -44 20z m49 -140 c6 -27 5 -28 -30 -28 -27 0 -35 4 -31 14 3 8 11 33 18 57
l13 42 12 -29 c6 -16 14 -41 18 -56z"/>
<path d="M6380 2915 c0 -122 2 -145 15 -145 11 0 15 12 15 45 0 40 2 45 23 45
17 0 28 -11 45 -45 12 -25 26 -45 31 -45 19 0 21 19 5 53 -16 33 -16 35 6 57
19 19 22 30 18 87 -5 80 -19 93 -100 93 l-58 0 0 -145z m124 83 c6 -17 6 -42
0 -65 -8 -36 -11 -38 -51 -41 l-43 -3 0 71 0 71 42 -3 c36 -3 44 -7 52 -30z"/>
<path d="M7192 3048 c3 -7 19 -14 36 -16 l32 -3 0 -124 c0 -77 4 -126 11 -130
6 -4 12 -5 15 -2 2 2 5 61 6 131 2 123 2 126 24 126 31 0 55 10 48 21 -3 5
-44 9 -90 9 -64 0 -85 -3 -82 -12z"/>
<path d="M2576 2975 c-10 -14 -16 -29 -13 -31 7 -8 39 35 35 47 -2 7 -12 0
-22 -16z"/>
<path d="M2261 2934 c-19 -24 -28 -54 -17 -54 7 0 47 72 43 77 -3 2 -14 -8
-26 -23z"/>
<path d="M3050 2930 c0 -22 -35 -63 -60 -72 -10 -3 -4 -15 23 -42 31 -31 37
-34 37 -17 0 11 -10 26 -22 32 l-22 12 22 17 c12 10 22 22 22 27 0 4 4 14 9
22 8 12 12 12 26 -2 9 -10 27 -17 41 -17 24 0 34 -23 14 -35 -6 -4 -6 -15 0
-31 14 -35 13 -36 -18 -29 -22 4 -33 0 -52 -20 -13 -14 -19 -25 -13 -25 6 0
16 7 24 16 9 11 25 15 51 12 41 -4 43 -2 28 37 -7 19 -6 34 5 55 20 39 19 41
-12 37 -27 -4 -83 20 -83 35 0 4 -4 8 -10 8 -5 0 -10 -9 -10 -20z"/>
<path d="M4437 2934 c-17 -17 -3 -24 49 -24 40 0 55 4 52 13 -5 13 -89 22
-101 11z"/>
<path d="M2500 2871 c-12 -17 -17 -31 -11 -31 13 0 46 48 38 56 -2 3 -15 -9
-27 -25z"/>
<path d="M2186 2791 c-9 -16 -16 -36 -16 -43 1 -7 10 4 21 25 11 22 18 41 15
44 -2 3 -12 -9 -20 -26z"/>
<path d="M2130 2660 c-7 -17 -10 -33 -8 -36 3 -2 11 9 18 26 7 17 10 33 8 36
-3 2 -11 -9 -18 -26z"/>
</g>
</svg>
